#!OML:ASF H:\Martial Arts Walks\Project 1\Capture day 1\Session 1\male.ASF
:FULLY-SPECIFIED
:DEGREES
2927
root 14.8328 14.6027 -22.1144 -172.919 -8.13911 -541.843
lowerback 20.9749 1.57994 3.14129
upperback -2.33203 3.11609 2.0152
thorax -14.4688 1.22674 -0.512936
lowerneck -2.85759 9.23381 2.41339
upperneck 6.89655 12.529 -5.07458
head 3.25521 6.08552 -1.55793
rclavicle 1.49089e-014 3.81667e-014
rhumerus 28.2863 49.6628 -49.8635
rradius 82.5661
rwrist -15.4269
rhand -10.4844 -50.0039
rfingers 7.12502
rthumb 15.5172 1000.6
lclavicle 1.49089e-014 3.81667e-014
lhumerus 102.687 -53.6189 14.2239
lradius 125.969
lwrist 35.3879
lhand -31.7968 780.496
lfingers 7.12502
lthumb -5.05254 -90.4157
rfemur -42.2315 -3.1071 0.296209
rtibia 68.1627
rfoot -22.6121 -16.9095
rtoes -27.8373
lfemur -59.381 10.8801 -16.5857
ltibia 80.4801
lfoot -21.6661 2.06966
ltoes -12.4959
2928
root 14.8949 14.6312 -22.1232 -173.292 -10.2061 -542.119
lowerback 21.1008 1.93573 3.4461
upperback -2.30517 3.6652 1.93025
thorax -14.4715 1.44637 -0.965525
lowerneck -3.34672 9.08482 2.3553
upperneck 8.05275 12.3455 -4.83735
head 3.71885 5.96428 -1.43429
rclavicle 4.37326e-014 5.24792e-014
rhumerus 30.1945 52.3351 -46.3554
rradius 83.3176
rwrist -17.2228
rhand -8.86714 -49.8338
rfingers 7.12502
rthumb 17.0743 1000.9
lclavicle 4.37326e-014 5.24792e-014
lhumerus 100.294 -53.6613 14.0698
lradius 126.567
lwrist 32.8566
lhand -31.6318 778.016
lfingers 7.12502
lthumb -4.8932 87.9398
rfemur -40.7082 -3.88926 0.211783
rtibia 68.0644
rfoot -22.126 -17.1838
rtoes -26.9464
lfemur -59.8541 11.5555 -16.9346
ltibia 81.8327
lfoot -21.2758 2.59394
ltoes -12.4709
2929
root 14.9489 14.6427 -22.1269 -173.611 -12.1574 -542.185
lowerback 21.2325 2.2908 3.90067
upperback -2.33847 4.26142 1.88819
thorax -14.5317 1.67439 -1.47068
lowerneck -3.67228 8.90244 2.49566
upperneck 9.02572 12.1031 -4.69188
head 4.11625 5.82419 -1.38935
rclavicle 7.67309e-014 -3.02153e-014
rhumerus 31.1424 55.0022 -43.4188
rradius 84.7916
rwrist -18.9253
rhand -7.41059 -49.4141
rfingers 7.12502
rthumb 18.4759 1001.44
lclavicle 7.67309e-014 -3.02153e-014
lhumerus 96.9023 -53.9868 14.4314
lradius 126.6
lwrist 30.5937
lhand -30.8108 775.205
lfingers 7.12502
lthumb -4.1004 85.1455
rfemur -39.4153 -4.82449 0.303627
rtibia 67.9906
rfoot -21.7434 -17.4402
rtoes -26.4431
lfemur -60.5469 12.2709 -16.8886
ltibia 83.3971
lfoot -20.8717 2.82379
ltoes -12.4189
2930
root 15.0052 14.6476 -22.1346 -174.013 -14.0151 -542.279
lowerback 21.5047 2.6884 4.20798
upperback -2.34275 4.88902 1.90241
thorax -14.645 1.92749 -1.84649
lowerneck -3.85074 8.73248 2.73894
upperneck 9.51589 11.8983 -5.00066
head 4.36391 5.70037 -1.52754
rclavicle 3.83654e-014 1.59028e-014
rhumerus 31.4836 57.4223 -40.9599
rradius 86.6472
rwrist -20.9065
rhand -5.31994 -48.6322
rfingers 7.12502
rthumb 20.486 1002.43
lclavicle 3.83654e-014 1.59028e-014
lhumerus 92.4499 -54.3898 15.632
lradius 126.154
lwrist 29.0854
lhand -29.4038 772.695
lfingers 7.12502
lthumb -2.74172 82.6571
rfemur -38.064 -5.87794 0.375789
rtibia 67.936
rfoot -21.1816 -17.8118
rtoes -26.3714
lfemur -61.0715 12.942 -16.6118
ltibia 84.9897
lfoot -20.3367 2.92834
ltoes -12.2179
2931
root 15.0526 14.6471 -22.1469 -174.462 -15.7087 -542.082
lowerback 21.6716 3.01635 4.6307
upperback -2.31151 5.45763 2.04009
thorax -14.6527 2.15167 -2.1212
lowerneck -4.07863 8.46371 2.68651
upperneck 9.89316 11.545 -4.94139
head 4.52078 5.51355 -1.50527
rclavicle 2.10712e-014 -9.54166e-015
rhumerus 32.8288 59.5689 -38.1838
rradius 88.2929
rwrist -22.6941
rhand -2.76481 -47.7424
rfingers 7.12502
rthumb 22.9397 1003.6
lclavicle 2.10712e-014 -9.54166e-015
lhumerus 86.7663 -54.8983 17.6176
lradius 125.128
lwrist 28.1071
lhand -28.1256 771.303
lfingers 7.12502
lthumb -1.50725 81.2772
rfemur -36.8535 -6.94022 0.690384
rtibia 67.909
rfoot -20.6691 -17.8788
rtoes -26.0178
lfemur -61.5636 13.724 -15.8287
ltibia 86.617
lfoot -19.7771 2.61171
ltoes -11.459
2932
root 15.0859 14.65 -22.1625 -174.771 -17.3325 -541.977
lowerback 21.6573 3.22779 4.96245
upperback -2.24174 5.83119 2.16653
thorax -14.5214 2.30227 -2.28045
lowerneck -4.3237 8.39364 2.66234
upperneck 10.2588 11.5093 -5.32343
head 4.24419 5.45385 -1.44722
rclavicle -5.00937e-014 -6.83819e-014
rhumerus 33.6028 61.7487 -35.7903
rradius 90.614
rwrist -23.7894
rhand 0.313121 -46.5723
rfingers 7.12502
rthumb 25.8903 1005.17
lclavicle -5.00937e-014 -6.83819e-014
lhumerus 79.9547 -55.2433 20.3451
lradius 123.505
lwrist 27.6619
lhand -27.4734 770.136
lfingers 7.12502
lthumb -0.87732 80.1138
rfemur -35.7375 -8.26742 0.837069
rtibia 67.9041
rfoot -20.2582 -17.8821
rtoes -25.9016
lfemur -62.0905 14.4145 -15.0642
ltibia 88.1415
lfoot -19.0999 2.2039
ltoes -10.1386
2933
root 15.1249 14.6409 -22.1789 -175.071 -18.7717 -541.623
lowerback 21.5571 3.47758 5.2347
upperback -2.14239 6.24742 2.4792
thorax -14.3293 2.487 -2.19976
lowerneck -4.52972 8.36432 2.62613
upperneck 10.1008 11.5266 -5.87588
head 4.26181 5.43145 -1.59871
rclavicle -4.7112e-014 -5.24792e-014
rhumerus 34.0267 63.79 -33.6635
rradius 93.1223
rwrist -24.3808
rhand 3.6301 -45.0005
rfingers 7.12502
rthumb 29.0625 1007.25
lclavicle -4.7112e-014 -5.24792e-014
lhumerus 72.047 -55.2343 24.1607
lradius 121.28
lwrist 27.5197
lhand -27.6457 771.683
lfingers 7.12502
lthumb -1.04375 81.66
rfemur -34.9279 -9.48345 1.2721
rtibia 67.969
rfoot -19.7944 -17.8986
rtoes -26.0229
lfemur -62.6992 15.3446 -13.8855
ltibia 89.5447
lfoot -18.3123 1.76341
ltoes -8.94047
2934
root 15.1627 14.62 -22.1883 -175.373 -19.9508 -541.202
lowerback 21.622 3.68105 5.47976
upperback -2.03367 6.6005 2.77264
thorax -14.2284 2.63894 -2.11615
lowerneck -5.35048 8.40542 2.30218
upperneck 10.2516 11.6432 -6.06083
head 4.44232 5.44641 -1.55701
rclavicle 1.5704e-014 -2.06736e-014
rhumerus 34.2323 65.7466 -32.0856
rradius 95.7281
rwrist -24.6779
rhand 6.68563 -43.5568
rfingers 7.12502
rthumb 31.9764 1009.23
lclavicle 1.5704e-014 -2.06736e-014
lhumerus 63.2451 -54.7452 28.8233
lradius 118.268
lwrist 28.5299
lhand -27.5477 774.295
lfingers 7.12502
lthumb -0.949049 84.2731
rfemur -34.406 -10.4688 1.73195
rtibia 68.1138
rfoot -19.54 -17.6888
rtoes -25.7796
lfemur -63.2166 16.4946 -12.5182
ltibia 90.7729
lfoot -17.48 1.2039
ltoes -8.00981
2935
root 15.1867 14.6133 -22.2134 -175.52 -21.1314 -541.039
lowerback 21.4886 3.81418 5.45175
upperback -1.9331 6.77012 2.99268
thorax -14.0544 2.73399 -1.89182
lowerneck -5.20377 8.60948 2.53494
upperneck 9.47376 11.9554 -6.95049
head 4.26328 5.5862 -1.85814
rclavicle 5.98342e-014 -2.38542e-014
rhumerus 32.938 67.5753 -32.2064
rradius 98.1298
rwrist -24.1017
rhand 13.9636 -41.0172
rfingers 7.12502
rthumb 38.8753 1013.43
lclavicle 5.98342e-014 -2.38542e-014
lhumerus 54.1436 -53.5298 33.9997
lradius 113.961
lwrist 28.5037
lhand -27.6615 779.143
lfingers 7.12502
lthumb -1.05902 89.1202
rfemur -33.7256 -11.726 1.8703
rtibia 68.2193
rfoot -19.4262 -17.7363
rtoes -26.2023
lfemur -63.5099 17.4776 -11.39
ltibia 91.693
lfoot -16.5316 0.976444
ltoes -6.893
2936
root 15.208 14.597 -22.2349 -175.596 -21.9939 -540.816
lowerback 21.2783 3.99115 5.35457
upperback -1.77591 6.96495 3.18652
thorax -13.7736 2.85012 -1.65894
lowerneck -5.35604 8.7795 2.79985
upperneck 8.71937 12.2066 -7.79011
head 4.14084 5.6951 -2.13823
rclavicle -6.59965e-014 -4.6118e-014
rhumerus 31.1472 69.2208 -32.9181
rradius 100.668
rwrist -23.9548
rhand 19.6155 -38.861
rfingers 7.12502
rthumb 44.1767 1017.32
lclavicle -6.59965e-014 -4.6118e-014
lhumerus 45.1799 -51.4209 39.3348
lradius 108.418
lwrist 28.5934
lhand -27.6365 783.883
lfingers 7.12502
lthumb -1.0348 266.14
rfemur -33.3695 -12.7148 2.09097
rtibia 68.3707
rfoot -19.2629 -17.7962
rtoes -26.6567
lfemur -63.7801 18.7229 -10.1354
ltibia 92.3718
lfoot -15.5307 0.780432
ltoes -5.70773
2937
root 15.2255 14.5771 -22.2601 -175.615 -22.5953 -540.555
lowerback 21.0447 4.20238 5.25288
upperback -1.63668 7.19767 3.30029
thorax -13.4906 2.98174 -1.52375
lowerneck -5.46997 8.96463 3.00751
upperneck 7.82455 12.4433 -8.4011
head 3.95359 5.81476 -2.34699
rclavicle 8.15017e-015 8.5875e-014
rhumerus 27.6196 70.5379 -35.4872
rradius 103.171
rwrist -24.2354
rhand 24.9538 -37.4338
rfingers 7.12502
rthumb 49.1187 1020.89
lclavicle 8.15017e-015 8.5875e-014
lhumerus 37.5054 -48.5569 44.0033
lradius 101.286
lwrist 27.3606
lhand -28.521 787.297
lfingers 7.12502
lthumb -1.88914 262.732
rfemur -33.2137 -13.5033 2.38232
rtibia 68.521
rfoot -19.2545 -17.8555
rtoes -26.8412
lfemur -63.9062 20.1851 -8.80518
ltibia 92.7791
lfoot -14.4879 0.874301
ltoes -4.72732
2938
root 15.2337 14.5607 -22.2873 -175.621 -23.0253 -540.34
lowerback 20.7715 4.45487 4.9867
upperback -1.48277 7.44179 3.40966
thorax -13.1904 3.13231 -1.30166
lowerneck -5.62053 9.15437 3.23072
upperneck 6.99662 12.6735 -8.94425
head 3.79147 5.93193 -2.53501
rclavicle -3.77691e-015 -4.13472e-014
rhumerus 22.2285 71.6812 -39.8829
rradius 105.526
rwrist -24.643
rhand 31.782 -35.9646
rfingers 7.12502
rthumb 55.3015 1026.12
lclavicle -3.77691e-015 -4.13472e-014
lhumerus 30.9181 -44.8248 48.2147
lradius 92.7841
lwrist 24.2501
lhand -29.8195 788.789
lfingers 7.12502
lthumb -3.14312 261.254
rfemur -33.072 -14.2147 2.61886
rtibia 68.6499
rfoot -19.2732 -17.9984
rtoes -27.0087
lfemur -63.7474 21.7145 -7.52544
ltibia 92.8634
lfoot -13.6229 1.28969
ltoes -3.19668
2939
root 15.2365 14.5416 -22.3087 -175.673 -23.2317 -540.108
lowerback 20.882 4.67529 4.95434
upperback -1.48758 7.72723 3.28865
thorax -13.2332 3.2607 -1.51543
lowerneck -5.64189 9.32467 3.57334
upperneck 6.21654 12.8503 -9.2866
head 3.6151 6.03895 -2.69031
rclavicle -7.11649e-014 -1.11319e-014
rhumerus 14.0973 72.2803 -47.2299
rradius 107.667
rwrist -25.7975
rhand 41.7668 -35.1095
rfingers 7.12502
rthumb 63.8426 1035.9
lclavicle -7.11649e-014 -1.11319e-014
lhumerus 25.8191 -40.6337 51.4764
lradius 82.8596
lwrist 17.85
lhand -30.8778 789.048
lfingers 7.12502
lthumb -4.16518 261.013
rfemur -33.033 -14.7577 2.87681
rtibia 68.7808
rfoot -19.1758 -18.1188
rtoes -27.0728
lfemur -63.3498 23.4027 -6.2463
ltibia 92.6403
lfoot -12.9985 1.99802
ltoes -2.5077
2940
root 15.2313 14.5238 -22.3325 -175.678 -23.3333 -539.779
lowerback 20.6879 4.95033 4.88211
upperback -1.43184 8.05408 3.25566
thorax -13.0457 3.42595 -1.59137
lowerneck -5.43372 9.45006 4.02234
upperneck 5.31322 12.9607 -9.85446
head 3.38382 6.11405 -2.94642
rclavicle -4.19436e-014 1.59028e-015
rhumerus 4.59971 71.985 -55.8093
rradius 109.408
rwrist -27.4406
rhand 51.3379 -36.8974
rfingers 7.12502
rthumb 70.8019 1050.11
lclavicle -4.19436e-014 1.59028e-015
lhumerus 22.2717 -35.6588 54.3115
lradius 71.5469
lwrist 7.73739
lhand -32.4243 786.717
lfingers 7.12502
lthumb -5.65844 263.378
rfemur -33.1209 -15.1711 3.24678
rtibia 68.8795
rfoot -18.9823 -18.2047
rtoes -26.9932
lfemur -62.8208 25.0898 -4.92518
ltibia 92.1066
lfoot -12.5582 2.94349
ltoes -1.77952
2941
root 15.2144 14.5087 -22.3619 -175.571 -23.4651 -539.658
lowerback 19.9842 4.91345 5.49275
upperback -1.14261 8.00714 2.57336
thorax -12.1119 3.39607 -2.58203
lowerneck -5.58914 9.62566 4.49421
upperneck 4.40384 13.0892 -9.70094
head 3.1641 6.22235 -2.97571
rclavicle -7.7526e-014 -1.59028e-015
rhumerus -4.14602 70.2721 -64.6421
rradius 110.436
rwrist -29.8476
rhand 62.6581 -40.1887
rfingers 7.12502
rthumb 74.9601 1081.92
lclavicle -7.7526e-014 -1.59028e-015
lhumerus 21.0325 -29.8741 55.3288
lradius 59.0957
lwrist -5.92274
lhand -34.5542 787.771
lfingers 7.12502
lthumb -7.71454 262.39
rfemur -33.1373 -15.6942 3.34159
rtibia 68.9528
rfoot -18.8907 -18.3334
rtoes -26.943
lfemur -62.1426 26.6233 -3.97442
ltibia 91.223
lfoot -12.2405 4.25824
ltoes -1.03463
